# Blender v2.82 (sub 7) OBJ File: ''
# www.blender.org
mtllib cross.mtl
o Cube.002_Cube.004
v 0.030000 0.030000 2.000000
v 0.030000 0.030000 -2.000000
v -0.030000 0.030000 2.000000
v -0.030000 0.030000 -2.000000
v 0.030000 -0.030000 2.000000
v 0.030000 -0.030000 -2.000000
v -0.030000 -0.030000 2.000000
v -0.030000 -0.030000 -2.000000
v -0.030000 -2.000000 0.030000
v -0.030000 2.000000 0.030000
v -0.030000 -2.000000 -0.030000
v -0.030000 2.000000 -0.030000
v 0.030000 -2.000000 0.030000
v 0.030000 2.000000 0.030000
v 0.030000 -2.000000 -0.030000
v 0.030000 2.000000 -0.030000
v -2.000000 0.030000 0.030000
v 2.000000 0.030000 0.030000
v -2.000000 0.030000 -0.030000
v 2.000000 0.030000 -0.030000
v -2.000000 -0.030000 0.030000
v 2.000000 -0.030000 0.030000
v -2.000000 -0.030000 -0.030000
v 2.000000 -0.030000 -0.030000
vt 0.625000 0.000000
vt 0.375000 0.250000
vt 0.375000 0.000000
vt 0.625000 0.250000
vt 0.375000 0.500000
vt 0.625000 0.500000
vt 0.375000 0.750000
vt 0.625000 0.750000
vt 0.375000 1.000000
vt 0.125000 0.750000
vt 0.125000 0.500000
vt 0.875000 0.500000
vt 0.625000 0.000000
vt 0.375000 0.250000
vt 0.375000 0.000000
vt 0.625000 0.250000
vt 0.375000 0.500000
vt 0.625000 0.500000
vt 0.375000 0.750000
vt 0.625000 0.750000
vt 0.375000 1.000000
vt 0.125000 0.750000
vt 0.125000 0.500000
vt 0.875000 0.500000
vt 0.625000 0.000000
vt 0.375000 0.250000
vt 0.375000 0.000000
vt 0.625000 0.500000
vt 0.375000 0.500000
vt 0.375000 0.750000
vt 0.625000 0.750000
vt 0.375000 1.000000
vt 0.125000 0.750000
vt 0.125000 0.500000
vt 0.875000 0.750000
vt 0.625000 1.000000
vt 0.875000 0.750000
vt 0.625000 1.000000
vt 0.875000 0.750000
vt 0.625000 0.250000
vt 0.625000 1.000000
vt 0.875000 0.500000
vn 0.0000 1.0000 -0.0000
vn -1.0000 0.0000 0.0000
vn 0.0000 -1.0000 0.0000
vn 1.0000 0.0000 -0.0000
vn 0.0000 0.0000 1.0000
vn 0.0000 0.0000 -1.0000
usemtl None
s off
f 2/1/1 3/2/1 1/3/1
f 4/4/2 7/5/2 3/2/2
f 8/6/3 5/7/3 7/5/3
f 6/8/4 1/9/4 5/7/4
f 7/5/5 1/10/5 3/11/5
f 4/12/6 6/8/6 8/6/6
f 10/13/2 11/14/2 9/15/2
f 12/16/6 15/17/6 11/14/6
f 16/18/4 13/19/4 15/17/4
f 14/20/5 9/21/5 13/19/5
f 15/17/3 9/22/3 11/23/3
f 12/24/1 14/20/1 16/18/1
f 18/25/1 19/26/1 17/27/1
f 19/26/6 24/28/6 23/29/6
f 24/28/3 21/30/3 23/29/3
f 22/31/5 17/32/5 21/30/5
f 23/29/2 17/33/2 19/34/2
f 24/28/4 18/35/4 22/31/4
f 2/1/1 4/4/1 3/2/1
f 4/4/2 8/6/2 7/5/2
f 8/6/3 6/8/3 5/7/3
f 6/8/4 2/36/4 1/9/4
f 7/5/5 5/7/5 1/10/5
f 4/12/6 2/37/6 6/8/6
f 10/13/2 12/16/2 11/14/2
f 12/16/6 16/18/6 15/17/6
f 16/18/4 14/20/4 13/19/4
f 14/20/5 10/38/5 9/21/5
f 15/17/3 13/19/3 9/22/3
f 12/24/1 10/39/1 14/20/1
f 18/25/1 20/40/1 19/26/1
f 19/26/6 20/40/6 24/28/6
f 24/28/3 22/31/3 21/30/3
f 22/31/5 18/41/5 17/32/5
f 23/29/2 21/30/2 17/33/2
f 24/28/4 20/42/4 18/35/4
